<svg width="159" height="32" viewBox="0 0 159 32" fill="none"
    xmlns="http://www.w3.org/2000/svg">
    <path d="M29.3334 11.3334L16 6.66675L2.66669 11.3334L16 16.0001L29.3334 11.3334ZM29.3334 11.3334V14.6667" stroke="#135BB4" stroke-width="4" stroke-linecap="round" stroke-linejoin="round"/>
    <path d="M8 14V20.4286C8 21.3758 8.84286 22.2842 10.3431 22.954C11.8434 23.6237 13.8783 24 16 24C18.1217 24 20.1566 23.6237 21.6569 22.954C23.1571 22.2842 24 21.3758 24 20.4286V14" stroke="#135BB4" stroke-width="4" stroke-linecap="round" stroke-linejoin="round"/>
    <path d="M48.0668 13.8338C48.0241 13.3651 47.8345 13.0007 47.4979 12.7408C47.1655 12.4766 46.6903 12.3445 46.0724 12.3445C45.6634 12.3445 45.3224 12.3977 45.0497 12.5043C44.777 12.6108 44.5724 12.7578 44.4361 12.9453C44.2997 13.1286 44.2294 13.3395 44.2251 13.5781C44.2166 13.7741 44.255 13.9467 44.3402 14.0959C44.4297 14.245 44.5575 14.3771 44.7237 14.4922C44.8942 14.603 45.0987 14.701 45.3374 14.7862C45.576 14.8714 45.8445 14.946 46.1428 15.0099L47.2678 15.2656C47.9155 15.4062 48.4865 15.5938 48.9808 15.8281C49.4794 16.0625 49.897 16.3416 50.2337 16.6655C50.5746 16.9893 50.8324 17.3622 51.0071 17.7841C51.1818 18.206 51.2713 18.679 51.2756 19.2031C51.2713 20.0298 51.0625 20.7393 50.6491 21.3317C50.2358 21.924 49.6413 22.3778 48.8658 22.6932C48.0945 23.0085 47.1634 23.1662 46.0724 23.1662C44.9773 23.1662 44.0227 23.0021 43.2088 22.674C42.3949 22.3459 41.7621 21.8473 41.3104 21.1783C40.8587 20.5092 40.6264 19.6634 40.6136 18.6406H43.6435C43.669 19.0625 43.782 19.4141 43.9822 19.6953C44.1825 19.9766 44.4574 20.1896 44.8068 20.3345C45.1605 20.4794 45.5696 20.5518 46.0341 20.5518C46.4602 20.5518 46.8224 20.4943 47.1207 20.3793C47.4233 20.2642 47.6555 20.1044 47.8175 19.8999C47.9794 19.6953 48.0625 19.4609 48.0668 19.1967C48.0625 18.9496 47.9858 18.7386 47.8366 18.5639C47.6875 18.3849 47.4574 18.2315 47.1463 18.1037C46.8395 17.9716 46.4474 17.8501 45.9702 17.7393L44.6023 17.4197C43.4688 17.1598 42.576 16.7401 41.924 16.1605C41.272 15.5767 40.9482 14.7884 40.9524 13.7955C40.9482 12.9858 41.1655 12.2763 41.6044 11.6669C42.0433 11.0575 42.6506 10.5824 43.4261 10.2415C44.2017 9.90057 45.0859 9.73011 46.0788 9.73011C47.093 9.73011 47.973 9.9027 48.7188 10.2479C49.4688 10.5888 50.0504 11.0682 50.4638 11.6861C50.8771 12.304 51.0881 13.0199 51.0966 13.8338H48.0668ZM57.4567 23.1854C56.4212 23.1854 55.5327 22.9723 54.7912 22.5462C54.054 22.12 53.4872 21.5277 53.0909 20.7692C52.6946 20.0064 52.4964 19.1243 52.4964 18.1229C52.4964 17.1172 52.6946 16.2351 53.0909 15.4766C53.4915 14.7138 54.0604 14.1193 54.7976 13.6932C55.5391 13.267 56.4233 13.054 57.4503 13.054C58.358 13.054 59.1484 13.218 59.8217 13.5462C60.4993 13.8743 61.0277 14.3388 61.407 14.9396C61.7905 15.5362 61.9929 16.2372 62.0142 17.0426H59.093C59.0334 16.5398 58.8629 16.1456 58.5817 15.8601C58.3047 15.5746 57.9425 15.4318 57.495 15.4318C57.1328 15.4318 56.8153 15.5341 56.5426 15.7386C56.2699 15.9389 56.0568 16.2372 55.9034 16.6335C55.7543 17.0256 55.6797 17.5114 55.6797 18.0909C55.6797 18.6705 55.7543 19.1605 55.9034 19.5611C56.0568 19.9574 56.2699 20.2578 56.5426 20.4624C56.8153 20.6626 57.1328 20.7628 57.495 20.7628C57.7848 20.7628 58.0405 20.701 58.2621 20.5774C58.4879 20.4538 58.6733 20.2727 58.8182 20.0341C58.9631 19.7912 59.0547 19.4972 59.093 19.152H62.0142C61.9844 19.9616 61.782 20.669 61.407 21.2741C61.0362 21.8793 60.5142 22.3501 59.8409 22.6868C59.1719 23.0192 58.3771 23.1854 57.4567 23.1854ZM66.7395 17.4006V23H63.6138V9.90909H66.6373V14.9844H66.7459C66.9675 14.3793 67.3297 13.9062 67.8326 13.5653C68.3397 13.2244 68.9597 13.054 69.6926 13.054C70.383 13.054 70.9838 13.2074 71.4952 13.5142C72.0066 13.8168 72.4029 14.245 72.6841 14.799C72.9696 15.353 73.1103 16.0007 73.106 16.7422V23H69.9803V17.3558C69.9846 16.8104 69.8482 16.3842 69.5712 16.0774C69.2942 15.7706 68.9043 15.6172 68.4015 15.6172C68.0733 15.6172 67.7836 15.6896 67.5321 15.8345C67.285 15.9751 67.0911 16.1776 66.9505 16.4418C66.8141 16.706 66.7438 17.0256 66.7395 17.4006ZM79.6403 23.1854C78.609 23.1854 77.7227 22.9744 76.9812 22.5526C76.244 22.1264 75.6751 21.5341 75.2745 20.7756C74.8782 20.0128 74.68 19.1286 74.68 18.1229C74.68 17.1129 74.8782 16.2287 75.2745 15.4702C75.6751 14.7074 76.244 14.1151 76.9812 13.6932C77.7227 13.267 78.609 13.054 79.6403 13.054C80.6715 13.054 81.5558 13.267 82.293 13.6932C83.0344 14.1151 83.6033 14.7074 83.9996 15.4702C84.4002 16.2287 84.6005 17.1129 84.6005 18.1229C84.6005 19.1286 84.4002 20.0128 83.9996 20.7756C83.6033 21.5341 83.0344 22.1264 82.293 22.5526C81.5558 22.9744 80.6715 23.1854 79.6403 23.1854ZM79.6594 20.8267C80.0344 20.8267 80.3519 20.7116 80.6119 20.4815C80.8718 20.2514 81.07 19.9318 81.2063 19.5227C81.3469 19.1136 81.4173 18.6406 81.4173 18.1037C81.4173 17.5582 81.3469 17.081 81.2063 16.6719C81.07 16.2628 80.8718 15.9432 80.6119 15.7131C80.3519 15.483 80.0344 15.3679 79.6594 15.3679C79.2717 15.3679 78.9435 15.483 78.6751 15.7131C78.4109 15.9432 78.2085 16.2628 78.0678 16.6719C77.9315 17.081 77.8633 17.5582 77.8633 18.1037C77.8633 18.6406 77.9315 19.1136 78.0678 19.5227C78.2085 19.9318 78.4109 20.2514 78.6751 20.4815C78.9435 20.7116 79.2717 20.8267 79.6594 20.8267ZM90.7848 23.1854C89.7536 23.1854 88.8672 22.9744 88.1257 22.5526C87.3885 22.1264 86.8196 21.5341 86.419 20.7756C86.0227 20.0128 85.8246 19.1286 85.8246 18.1229C85.8246 17.1129 86.0227 16.2287 86.419 15.4702C86.8196 14.7074 87.3885 14.1151 88.1257 13.6932C88.8672 13.267 89.7536 13.054 90.7848 13.054C91.8161 13.054 92.7003 13.267 93.4375 13.6932C94.179 14.1151 94.7479 14.7074 95.1442 15.4702C95.5447 16.2287 95.745 17.1129 95.745 18.1229C95.745 19.1286 95.5447 20.0128 95.1442 20.7756C94.7479 21.5341 94.179 22.1264 93.4375 22.5526C92.7003 22.9744 91.8161 23.1854 90.7848 23.1854ZM90.804 20.8267C91.179 20.8267 91.4964 20.7116 91.7564 20.4815C92.0163 20.2514 92.2145 19.9318 92.3509 19.5227C92.4915 19.1136 92.5618 18.6406 92.5618 18.1037C92.5618 17.5582 92.4915 17.081 92.3509 16.6719C92.2145 16.2628 92.0163 15.9432 91.7564 15.7131C91.4964 15.483 91.179 15.3679 90.804 15.3679C90.4162 15.3679 90.0881 15.483 89.8196 15.7131C89.5554 15.9432 89.353 16.2628 89.2124 16.6719C89.076 17.081 89.0078 17.5582 89.0078 18.1037C89.0078 18.6406 89.076 19.1136 89.2124 19.5227C89.353 19.9318 89.5554 20.2514 89.8196 20.4815C90.0881 20.7116 90.4162 20.8267 90.804 20.8267ZM100.472 9.90909V23H97.3462V9.90909H100.472ZM106.329 23V9.90909H111.736C112.716 9.90909 113.562 10.1009 114.274 10.4844C114.99 10.8636 115.542 11.3942 115.93 12.076C116.317 12.7536 116.511 13.5419 116.511 14.4411C116.511 15.3445 116.313 16.1349 115.917 16.8125C115.525 17.4858 114.964 18.0078 114.236 18.3786C113.507 18.7493 112.642 18.9347 111.64 18.9347H108.304V16.4418H111.052C111.53 16.4418 111.928 16.3587 112.248 16.1925C112.572 16.0263 112.817 15.794 112.983 15.4957C113.149 15.1932 113.232 14.8416 113.232 14.4411C113.232 14.0362 113.149 13.6868 112.983 13.3928C112.817 13.0945 112.572 12.8643 112.248 12.7024C111.924 12.5405 111.525 12.4595 111.052 12.4595H109.493V23H106.329ZM122.461 23.1854C121.429 23.1854 120.543 22.9744 119.801 22.5526C119.064 22.1264 118.495 21.5341 118.095 20.7756C117.699 20.0128 117.5 19.1286 117.5 18.1229C117.5 17.1129 117.699 16.2287 118.095 15.4702C118.495 14.7074 119.064 14.1151 119.801 13.6932C120.543 13.267 121.429 13.054 122.461 13.054C123.492 13.054 124.376 13.267 125.113 13.6932C125.855 14.1151 126.424 14.7074 126.82 15.4702C127.221 16.2287 127.421 17.1129 127.421 18.1229C127.421 19.1286 127.221 20.0128 126.82 20.7756C126.424 21.5341 125.855 22.1264 125.113 22.5526C124.376 22.9744 123.492 23.1854 122.461 23.1854ZM122.48 20.8267C122.855 20.8267 123.172 20.7116 123.432 20.4815C123.692 20.2514 123.89 19.9318 124.027 19.5227C124.167 19.1136 124.238 18.6406 124.238 18.1037C124.238 17.5582 124.167 17.081 124.027 16.6719C123.89 16.2628 123.692 15.9432 123.432 15.7131C123.172 15.483 122.855 15.3679 122.48 15.3679C122.092 15.3679 121.764 15.483 121.495 15.7131C121.231 15.9432 121.029 16.2628 120.888 16.6719C120.752 17.081 120.684 17.5582 120.684 18.1037C120.684 18.6406 120.752 19.1136 120.888 19.5227C121.029 19.9318 121.231 20.2514 121.495 20.4815C121.764 20.7116 122.092 20.8267 122.48 20.8267ZM129.022 23V13.1818H132.058V14.9716H132.161C132.339 14.3239 132.631 13.8423 133.036 13.527C133.441 13.2074 133.912 13.0476 134.449 13.0476C134.594 13.0476 134.743 13.0582 134.896 13.0795C135.05 13.0966 135.192 13.1243 135.325 13.1626V15.8793C135.175 15.8281 134.979 15.7876 134.737 15.7578C134.498 15.728 134.285 15.7131 134.097 15.7131C133.727 15.7131 133.392 15.7962 133.094 15.9624C132.8 16.1243 132.567 16.3523 132.397 16.6463C132.231 16.9361 132.148 17.277 132.148 17.669V23H129.022ZM142.597 13.1818V15.483H136.403V13.1818H142.597ZM137.701 10.8295H140.827V19.9126C140.827 20.1044 140.856 20.2599 140.916 20.3793C140.98 20.4943 141.072 20.5774 141.191 20.6286C141.31 20.6754 141.453 20.6989 141.619 20.6989C141.738 20.6989 141.864 20.6882 141.996 20.6669C142.133 20.6413 142.235 20.62 142.303 20.603L142.776 22.8594C142.627 22.902 142.416 22.9553 142.143 23.0192C141.875 23.0831 141.553 23.1236 141.178 23.1406C140.445 23.1747 139.817 23.0895 139.292 22.8849C138.773 22.6761 138.374 22.3523 138.097 21.9134C137.824 21.4744 137.692 20.9226 137.701 20.2578V10.8295ZM146.96 23.1662C146.333 23.1662 145.777 23.0618 145.291 22.853C144.81 22.6399 144.428 22.3203 144.147 21.8942C143.87 21.4638 143.732 20.9247 143.732 20.277C143.732 19.7315 143.828 19.2713 144.019 18.8963C144.211 18.5213 144.475 18.2166 144.812 17.9822C145.149 17.7479 145.536 17.571 145.975 17.4517C146.414 17.3281 146.883 17.245 147.382 17.2024C147.94 17.1513 148.389 17.098 148.73 17.0426C149.071 16.983 149.318 16.8999 149.472 16.7933C149.629 16.6825 149.708 16.527 149.708 16.3267V16.2947C149.708 15.9666 149.595 15.7131 149.369 15.5341C149.144 15.3551 148.839 15.2656 148.455 15.2656C148.042 15.2656 147.71 15.3551 147.458 15.5341C147.207 15.7131 147.047 15.9602 146.979 16.2756L144.096 16.1733C144.181 15.5767 144.401 15.044 144.754 14.5753C145.112 14.1023 145.602 13.7315 146.225 13.4631C146.851 13.1903 147.603 13.054 148.481 13.054C149.107 13.054 149.685 13.1286 150.213 13.2777C150.742 13.4226 151.202 13.6357 151.594 13.9169C151.986 14.1939 152.289 14.5348 152.502 14.9396C152.719 15.3445 152.828 15.8068 152.828 16.3267V23H149.887V21.6321H149.811C149.636 21.9645 149.412 22.2457 149.139 22.4759C148.871 22.706 148.553 22.8786 148.187 22.9936C147.825 23.1087 147.416 23.1662 146.96 23.1662ZM147.925 21.1207C148.262 21.1207 148.564 21.0526 148.833 20.9162C149.105 20.7798 149.323 20.5923 149.485 20.3537C149.646 20.1108 149.727 19.8295 149.727 19.5099V18.5767C149.638 18.6236 149.529 18.6662 149.401 18.7045C149.278 18.7429 149.142 18.7791 148.992 18.8132C148.843 18.8473 148.69 18.8771 148.532 18.9027C148.374 18.9283 148.223 18.9517 148.078 18.973C147.784 19.0199 147.533 19.0923 147.324 19.1903C147.119 19.2884 146.962 19.4162 146.851 19.5739C146.744 19.7273 146.691 19.9105 146.691 20.1236C146.691 20.4474 146.806 20.6946 147.036 20.8651C147.271 21.0355 147.567 21.1207 147.925 21.1207ZM157.865 9.90909V23H154.739V9.90909H157.865Z" fill="#135BB4"/>
</svg>
